<mxfile host="app.diagrams.net" agent="Mozilla/5.0 (Windows NT 10.0; Win64; x64) AppleWebKit/537.36 (KHTML, like Gecko) Chrome/130.0.0.0 Safari/537.36" version="24.8.1" pages="2">
  <diagram name="Page-1" id="4_dgeS7d85DwzsJWw55D">
    <mxGraphModel dx="3025" dy="2105" grid="0" gridSize="10" guides="1" tooltips="1" connect="1" arrows="1" fold="1" page="0" pageScale="1" pageWidth="3000" pageHeight="3400" math="0" shadow="0">
      <root>
        <mxCell id="0" />
        <mxCell id="1" parent="0" />
        <mxCell id="o6I07O1_OOtZ4YXk67AV-3" value="Book" style="rounded=0;whiteSpace=wrap;html=1;" parent="1" vertex="1">
          <mxGeometry x="957" y="224" width="120" height="60" as="geometry" />
        </mxCell>
        <mxCell id="o6I07O1_OOtZ4YXk67AV-4" value="&lt;u&gt;Book_ID&lt;/u&gt;" style="ellipse;whiteSpace=wrap;html=1;" parent="1" vertex="1">
          <mxGeometry x="1287" y="-19" width="120" height="80" as="geometry" />
        </mxCell>
        <mxCell id="o6I07O1_OOtZ4YXk67AV-5" value="Title" style="ellipse;whiteSpace=wrap;html=1;" parent="1" vertex="1">
          <mxGeometry x="1231" y="270" width="120" height="80" as="geometry" />
        </mxCell>
        <mxCell id="o6I07O1_OOtZ4YXk67AV-6" value="Author name" style="ellipse;whiteSpace=wrap;html=1;" parent="1" vertex="1">
          <mxGeometry x="1281" y="76" width="120" height="80" as="geometry" />
        </mxCell>
        <mxCell id="o6I07O1_OOtZ4YXk67AV-8" value="Genre" style="ellipse;whiteSpace=wrap;html=1;" parent="1" vertex="1">
          <mxGeometry x="1265" y="180" width="120" height="80" as="geometry" />
        </mxCell>
        <mxCell id="o6I07O1_OOtZ4YXk67AV-12" value="" style="endArrow=none;html=1;rounded=0;fontSize=12;startSize=8;endSize=8;curved=1;entryX=0;entryY=1;entryDx=0;entryDy=0;exitX=0.992;exitY=0.117;exitDx=0;exitDy=0;exitPerimeter=0;" parent="1" source="o6I07O1_OOtZ4YXk67AV-3" target="o6I07O1_OOtZ4YXk67AV-6" edge="1">
          <mxGeometry width="50" height="50" relative="1" as="geometry">
            <mxPoint x="819" y="197" as="sourcePoint" />
            <mxPoint x="869" y="147" as="targetPoint" />
          </mxGeometry>
        </mxCell>
        <mxCell id="o6I07O1_OOtZ4YXk67AV-13" value="" style="endArrow=none;html=1;rounded=0;fontSize=12;startSize=8;endSize=8;curved=1;exitX=0;exitY=0.5;exitDx=0;exitDy=0;" parent="1" source="o6I07O1_OOtZ4YXk67AV-8" target="o6I07O1_OOtZ4YXk67AV-3" edge="1">
          <mxGeometry width="50" height="50" relative="1" as="geometry">
            <mxPoint x="786" y="271" as="sourcePoint" />
            <mxPoint x="836" y="221" as="targetPoint" />
          </mxGeometry>
        </mxCell>
        <mxCell id="o6I07O1_OOtZ4YXk67AV-16" value="" style="endArrow=none;html=1;rounded=0;fontSize=12;startSize=8;endSize=8;curved=1;exitX=0.75;exitY=0;exitDx=0;exitDy=0;" parent="1" source="o6I07O1_OOtZ4YXk67AV-3" target="o6I07O1_OOtZ4YXk67AV-4" edge="1">
          <mxGeometry width="50" height="50" relative="1" as="geometry">
            <mxPoint x="840" y="191" as="sourcePoint" />
            <mxPoint x="816" y="46" as="targetPoint" />
          </mxGeometry>
        </mxCell>
        <mxCell id="o6I07O1_OOtZ4YXk67AV-17" value="" style="endArrow=none;html=1;rounded=0;fontSize=12;startSize=8;endSize=8;curved=1;entryX=1;entryY=0.75;entryDx=0;entryDy=0;" parent="1" source="o6I07O1_OOtZ4YXk67AV-5" target="o6I07O1_OOtZ4YXk67AV-3" edge="1">
          <mxGeometry width="50" height="50" relative="1" as="geometry">
            <mxPoint x="795" y="307" as="sourcePoint" />
            <mxPoint x="845" y="257" as="targetPoint" />
          </mxGeometry>
        </mxCell>
        <mxCell id="o6I07O1_OOtZ4YXk67AV-20" value="Publisher" style="rounded=0;whiteSpace=wrap;html=1;" parent="1" vertex="1">
          <mxGeometry x="952" y="1" width="120" height="60" as="geometry" />
        </mxCell>
        <mxCell id="o6I07O1_OOtZ4YXk67AV-21" value="&lt;u&gt;Publisher_ID&lt;/u&gt;" style="ellipse;whiteSpace=wrap;html=1;" parent="1" vertex="1">
          <mxGeometry x="1039" y="-131" width="120" height="80" as="geometry" />
        </mxCell>
        <mxCell id="o6I07O1_OOtZ4YXk67AV-22" value="" style="endArrow=none;html=1;rounded=0;fontSize=12;startSize=8;endSize=8;curved=1;exitX=0;exitY=1;exitDx=0;exitDy=0;" parent="1" source="o6I07O1_OOtZ4YXk67AV-21" target="o6I07O1_OOtZ4YXk67AV-20" edge="1">
          <mxGeometry width="50" height="50" relative="1" as="geometry">
            <mxPoint x="1136.1102769497368" y="103.31664212092096" as="sourcePoint" />
            <mxPoint x="1066" y="29" as="targetPoint" />
          </mxGeometry>
        </mxCell>
        <mxCell id="o6I07O1_OOtZ4YXk67AV-23" value="Publisher_Name" style="ellipse;whiteSpace=wrap;html=1;" parent="1" vertex="1">
          <mxGeometry x="891" y="-123" width="120" height="80" as="geometry" />
        </mxCell>
        <mxCell id="o6I07O1_OOtZ4YXk67AV-24" value="" style="endArrow=none;html=1;rounded=0;fontSize=12;startSize=8;endSize=8;curved=1;exitX=0.15;exitY=0.011;exitDx=0;exitDy=0;exitPerimeter=0;" parent="1" source="o6I07O1_OOtZ4YXk67AV-20" target="o6I07O1_OOtZ4YXk67AV-23" edge="1">
          <mxGeometry width="50" height="50" relative="1" as="geometry">
            <mxPoint x="995" y="-218" as="sourcePoint" />
            <mxPoint x="921" y="-264" as="targetPoint" />
          </mxGeometry>
        </mxCell>
        <mxCell id="o6I07O1_OOtZ4YXk67AV-25" value="" style="endArrow=none;html=1;rounded=0;fontSize=12;startSize=8;endSize=8;curved=1;exitX=0.5;exitY=0;exitDx=0;exitDy=0;entryX=0.5;entryY=1;entryDx=0;entryDy=0;" parent="1" source="o6I07O1_OOtZ4YXk67AV-20" target="o6I07O1_OOtZ4YXk67AV-26" edge="1">
          <mxGeometry width="50" height="50" relative="1" as="geometry">
            <mxPoint x="1056.94" y="22.02" as="sourcePoint" />
            <mxPoint x="1050.9959348257787" y="-84.00348949874909" as="targetPoint" />
          </mxGeometry>
        </mxCell>
        <mxCell id="o6I07O1_OOtZ4YXk67AV-26" value="Address" style="ellipse;whiteSpace=wrap;html=1;" parent="1" vertex="1">
          <mxGeometry x="969" y="-215" width="120" height="80" as="geometry" />
        </mxCell>
        <mxCell id="o6I07O1_OOtZ4YXk67AV-28" value="Publishes" style="rhombus;whiteSpace=wrap;html=1;" parent="1" vertex="1">
          <mxGeometry x="972" y="95" width="80" height="80" as="geometry" />
        </mxCell>
        <mxCell id="o6I07O1_OOtZ4YXk67AV-29" value="1" style="endArrow=none;html=1;rounded=0;fontSize=12;startSize=8;endSize=8;curved=1;exitX=0.5;exitY=0;exitDx=0;exitDy=0;entryX=0.5;entryY=1;entryDx=0;entryDy=0;" parent="1" source="o6I07O1_OOtZ4YXk67AV-28" target="o6I07O1_OOtZ4YXk67AV-20" edge="1">
          <mxGeometry width="50" height="50" relative="1" as="geometry">
            <mxPoint x="961" y="102" as="sourcePoint" />
            <mxPoint x="1011" y="52" as="targetPoint" />
          </mxGeometry>
        </mxCell>
        <mxCell id="o6I07O1_OOtZ4YXk67AV-30" value="N" style="endArrow=none;html=1;rounded=0;fontSize=12;startSize=8;endSize=8;curved=1;entryX=0.5;entryY=1;entryDx=0;entryDy=0;" parent="1" source="o6I07O1_OOtZ4YXk67AV-3" target="o6I07O1_OOtZ4YXk67AV-28" edge="1">
          <mxGeometry width="50" height="50" relative="1" as="geometry">
            <mxPoint x="963" y="224" as="sourcePoint" />
            <mxPoint x="1013" y="174" as="targetPoint" />
          </mxGeometry>
        </mxCell>
        <mxCell id="jFtiMo8EwNsYXTJmnN6S-6" value="Person" style="rounded=0;whiteSpace=wrap;html=1;" parent="1" vertex="1">
          <mxGeometry x="-11" y="-323" width="120" height="60" as="geometry" />
        </mxCell>
        <mxCell id="jFtiMo8EwNsYXTJmnN6S-13" value="&lt;b&gt;O&lt;/b&gt;" style="ellipse;whiteSpace=wrap;html=1;aspect=fixed;" parent="1" vertex="1">
          <mxGeometry x="33.5" y="-175.59000000000003" width="26" height="26" as="geometry" />
        </mxCell>
        <mxCell id="jFtiMo8EwNsYXTJmnN6S-14" value="Customer" style="rounded=0;whiteSpace=wrap;html=1;" parent="1" vertex="1">
          <mxGeometry x="97" y="66.99999999999997" width="120" height="60" as="geometry" />
        </mxCell>
        <mxCell id="jFtiMo8EwNsYXTJmnN6S-15" value="" style="endArrow=none;html=1;rounded=0;exitX=0.5;exitY=0;exitDx=0;exitDy=0;entryX=1;entryY=0.5;entryDx=0;entryDy=0;" parent="1" source="jFtiMo8EwNsYXTJmnN6S-14" target="jFtiMo8EwNsYXTJmnN6S-13" edge="1">
          <mxGeometry width="50" height="50" relative="1" as="geometry">
            <mxPoint x="-12" y="-103.59000000000003" as="sourcePoint" />
            <mxPoint x="38" y="-153.59000000000003" as="targetPoint" />
          </mxGeometry>
        </mxCell>
        <mxCell id="jFtiMo8EwNsYXTJmnN6S-16" value="Author" style="rounded=0;whiteSpace=wrap;html=1;" parent="1" vertex="1">
          <mxGeometry x="-137" y="41.99999999999997" width="120" height="60" as="geometry" />
        </mxCell>
        <mxCell id="jFtiMo8EwNsYXTJmnN6S-20" value="Name" style="ellipse;whiteSpace=wrap;html=1;" parent="1" vertex="1">
          <mxGeometry x="63" y="-451" width="120" height="80" as="geometry" />
        </mxCell>
        <mxCell id="jFtiMo8EwNsYXTJmnN6S-21" value="&lt;u&gt;Email&lt;/u&gt;" style="ellipse;whiteSpace=wrap;html=1;" parent="1" vertex="1">
          <mxGeometry x="-134" y="-467" width="120" height="80" as="geometry" />
        </mxCell>
        <mxCell id="jFtiMo8EwNsYXTJmnN6S-22" value="&lt;u&gt;Phone_number&lt;/u&gt;" style="ellipse;whiteSpace=wrap;html=1;" parent="1" vertex="1">
          <mxGeometry x="-218" y="-353" width="120" height="80" as="geometry" />
        </mxCell>
        <mxCell id="jFtiMo8EwNsYXTJmnN6S-23" value="" style="endArrow=none;html=1;rounded=0;exitX=1;exitY=0.5;exitDx=0;exitDy=0;" parent="1" source="jFtiMo8EwNsYXTJmnN6S-22" edge="1">
          <mxGeometry width="50" height="50" relative="1" as="geometry">
            <mxPoint x="-61" y="-255" as="sourcePoint" />
            <mxPoint x="-11" y="-305" as="targetPoint" />
          </mxGeometry>
        </mxCell>
        <mxCell id="jFtiMo8EwNsYXTJmnN6S-24" value="" style="endArrow=none;html=1;rounded=0;entryX=0.312;entryY=0.953;entryDx=0;entryDy=0;entryPerimeter=0;exitX=0.569;exitY=-0.002;exitDx=0;exitDy=0;exitPerimeter=0;" parent="1" source="jFtiMo8EwNsYXTJmnN6S-6" target="jFtiMo8EwNsYXTJmnN6S-20" edge="1">
          <mxGeometry width="50" height="50" relative="1" as="geometry">
            <mxPoint x="63" y="-321" as="sourcePoint" />
            <mxPoint x="113" y="-371" as="targetPoint" />
          </mxGeometry>
        </mxCell>
        <mxCell id="jFtiMo8EwNsYXTJmnN6S-27" value="" style="endArrow=none;html=1;rounded=0;" parent="1" target="jFtiMo8EwNsYXTJmnN6S-21" edge="1">
          <mxGeometry width="50" height="50" relative="1" as="geometry">
            <mxPoint x="-3" y="-323" as="sourcePoint" />
            <mxPoint x="47" y="-373" as="targetPoint" />
          </mxGeometry>
        </mxCell>
        <mxCell id="jFtiMo8EwNsYXTJmnN6S-28" value="First_name" style="ellipse;whiteSpace=wrap;html=1;" parent="1" vertex="1">
          <mxGeometry x="-44" y="-604" width="120" height="80" as="geometry" />
        </mxCell>
        <mxCell id="jFtiMo8EwNsYXTJmnN6S-29" value="Middle_name" style="ellipse;whiteSpace=wrap;html=1;" parent="1" vertex="1">
          <mxGeometry x="92" y="-604" width="120" height="80" as="geometry" />
        </mxCell>
        <mxCell id="jFtiMo8EwNsYXTJmnN6S-30" value="Last_name" style="ellipse;whiteSpace=wrap;html=1;" parent="1" vertex="1">
          <mxGeometry x="171" y="-524" width="120" height="80" as="geometry" />
        </mxCell>
        <mxCell id="jFtiMo8EwNsYXTJmnN6S-31" value="" style="endArrow=none;html=1;rounded=0;entryX=0.5;entryY=1;entryDx=0;entryDy=0;exitX=0.433;exitY=-0.005;exitDx=0;exitDy=0;exitPerimeter=0;" parent="1" source="jFtiMo8EwNsYXTJmnN6S-20" target="jFtiMo8EwNsYXTJmnN6S-28" edge="1">
          <mxGeometry width="50" height="50" relative="1" as="geometry">
            <mxPoint x="107" y="-451" as="sourcePoint" />
            <mxPoint x="29.426406871204563" y="-509.71572875253014" as="targetPoint" />
          </mxGeometry>
        </mxCell>
        <mxCell id="jFtiMo8EwNsYXTJmnN6S-32" value="" style="endArrow=none;html=1;rounded=0;exitX=0.5;exitY=0;exitDx=0;exitDy=0;entryX=0.5;entryY=1;entryDx=0;entryDy=0;" parent="1" source="jFtiMo8EwNsYXTJmnN6S-20" target="jFtiMo8EwNsYXTJmnN6S-29" edge="1">
          <mxGeometry width="50" height="50" relative="1" as="geometry">
            <mxPoint x="71" y="-448" as="sourcePoint" />
            <mxPoint x="121" y="-498" as="targetPoint" />
          </mxGeometry>
        </mxCell>
        <mxCell id="jFtiMo8EwNsYXTJmnN6S-34" value="" style="endArrow=none;html=1;rounded=0;exitX=0.948;exitY=0.306;exitDx=0;exitDy=0;exitPerimeter=0;" parent="1" source="jFtiMo8EwNsYXTJmnN6S-20" edge="1">
          <mxGeometry width="50" height="50" relative="1" as="geometry">
            <mxPoint x="171" y="-394" as="sourcePoint" />
            <mxPoint x="221" y="-444" as="targetPoint" />
          </mxGeometry>
        </mxCell>
        <mxCell id="jFtiMo8EwNsYXTJmnN6S-35" value="" style="shape=requiredInterface;html=1;verticalLabelPosition=bottom;sketch=0;rotation=60;" parent="1" vertex="1">
          <mxGeometry x="83" y="-93.00000000000003" width="18.88" height="20" as="geometry" />
        </mxCell>
        <mxCell id="q8TvVPf23e_hyGu6hidc-4" value="Place" style="rhombus;whiteSpace=wrap;html=1;" parent="1" vertex="1">
          <mxGeometry x="300" y="57" width="80" height="80" as="geometry" />
        </mxCell>
        <mxCell id="q8TvVPf23e_hyGu6hidc-5" value="1" style="endArrow=none;html=1;rounded=0;entryX=0;entryY=0.5;entryDx=0;entryDy=0;exitX=1;exitY=0.5;exitDx=0;exitDy=0;" parent="1" source="jFtiMo8EwNsYXTJmnN6S-14" target="q8TvVPf23e_hyGu6hidc-4" edge="1">
          <mxGeometry width="50" height="50" relative="1" as="geometry">
            <mxPoint x="181" y="53" as="sourcePoint" />
            <mxPoint x="291" y="12" as="targetPoint" />
          </mxGeometry>
        </mxCell>
        <mxCell id="q8TvVPf23e_hyGu6hidc-6" value="Order" style="rounded=0;whiteSpace=wrap;html=1;" parent="1" vertex="1">
          <mxGeometry x="471.56" y="67" width="120" height="60" as="geometry" />
        </mxCell>
        <mxCell id="q8TvVPf23e_hyGu6hidc-7" value="N" style="endArrow=none;html=1;rounded=0;entryX=0;entryY=0.5;entryDx=0;entryDy=0;exitX=0.989;exitY=0.499;exitDx=0;exitDy=0;exitPerimeter=0;" parent="1" source="q8TvVPf23e_hyGu6hidc-4" target="q8TvVPf23e_hyGu6hidc-6" edge="1">
          <mxGeometry width="50" height="50" relative="1" as="geometry">
            <mxPoint x="415" y="96" as="sourcePoint" />
            <mxPoint x="465" y="46" as="targetPoint" />
          </mxGeometry>
        </mxCell>
        <mxCell id="q8TvVPf23e_hyGu6hidc-8" value="Write" style="rhombus;whiteSpace=wrap;html=1;" parent="1" vertex="1">
          <mxGeometry x="985" y="547" width="80" height="80" as="geometry" />
        </mxCell>
        <mxCell id="q8TvVPf23e_hyGu6hidc-9" value="1" style="endArrow=none;html=1;rounded=0;entryX=0;entryY=0.5;entryDx=0;entryDy=0;exitX=0.5;exitY=1;exitDx=0;exitDy=0;" parent="1" source="jFtiMo8EwNsYXTJmnN6S-16" target="q8TvVPf23e_hyGu6hidc-8" edge="1">
          <mxGeometry width="50" height="50" relative="1" as="geometry">
            <mxPoint x="297" y="656" as="sourcePoint" />
            <mxPoint x="647" y="415" as="targetPoint" />
            <Array as="points">
              <mxPoint x="-82" y="595" />
            </Array>
          </mxGeometry>
        </mxCell>
        <mxCell id="q8TvVPf23e_hyGu6hidc-10" value="N" style="endArrow=none;html=1;rounded=0;exitX=0.5;exitY=0;exitDx=0;exitDy=0;" parent="1" source="q8TvVPf23e_hyGu6hidc-8" edge="1">
          <mxGeometry width="50" height="50" relative="1" as="geometry">
            <mxPoint x="969" y="334" as="sourcePoint" />
            <mxPoint x="1019" y="284" as="targetPoint" />
          </mxGeometry>
        </mxCell>
        <mxCell id="q8TvVPf23e_hyGu6hidc-11" value="&lt;u&gt;Order_ID&lt;/u&gt;" style="ellipse;whiteSpace=wrap;html=1;" parent="1" vertex="1">
          <mxGeometry x="466" y="-79" width="120" height="80" as="geometry" />
        </mxCell>
        <mxCell id="q8TvVPf23e_hyGu6hidc-16" value="Order_Date" style="ellipse;whiteSpace=wrap;html=1;" parent="1" vertex="1">
          <mxGeometry x="661.06" y="-32" width="120" height="80" as="geometry" />
        </mxCell>
        <mxCell id="q8TvVPf23e_hyGu6hidc-17" value="" style="endArrow=none;html=1;rounded=0;exitX=1;exitY=0.25;exitDx=0;exitDy=0;entryX=0;entryY=0.5;entryDx=0;entryDy=0;" parent="1" source="q8TvVPf23e_hyGu6hidc-6" target="q8TvVPf23e_hyGu6hidc-16" edge="1">
          <mxGeometry width="50" height="50" relative="1" as="geometry">
            <mxPoint x="635" y="96" as="sourcePoint" />
            <mxPoint x="685" y="46" as="targetPoint" />
          </mxGeometry>
        </mxCell>
        <mxCell id="q8TvVPf23e_hyGu6hidc-21" value="1" style="endArrow=none;html=1;rounded=0;exitX=0.5;exitY=0;exitDx=0;exitDy=0;" parent="1" source="q8TvVPf23e_hyGu6hidc-33" target="q8TvVPf23e_hyGu6hidc-6" edge="1">
          <mxGeometry width="50" height="50" relative="1" as="geometry">
            <mxPoint x="526" y="200" as="sourcePoint" />
            <mxPoint x="525" y="126" as="targetPoint" />
          </mxGeometry>
        </mxCell>
        <mxCell id="q8TvVPf23e_hyGu6hidc-28" value="Order_Item" style="shape=ext;margin=3;double=1;whiteSpace=wrap;html=1;align=center;" parent="1" vertex="1">
          <mxGeometry x="481.06" y="355" width="100" height="40" as="geometry" />
        </mxCell>
        <mxCell id="q8TvVPf23e_hyGu6hidc-33" value="Contain" style="shape=rhombus;double=1;perimeter=rhombusPerimeter;whiteSpace=wrap;html=1;align=center;" parent="1" vertex="1">
          <mxGeometry x="471.06" y="198" width="120" height="76" as="geometry" />
        </mxCell>
        <mxCell id="q8TvVPf23e_hyGu6hidc-36" value="Discount" style="ellipse;whiteSpace=wrap;html=1;" parent="1" vertex="1">
          <mxGeometry x="402.06" y="440" width="120" height="80" as="geometry" />
        </mxCell>
        <mxCell id="q8TvVPf23e_hyGu6hidc-37" value="" style="endArrow=none;dashed=1;html=1;rounded=0;exitX=0.5;exitY=0;exitDx=0;exitDy=0;entryX=0.25;entryY=1;entryDx=0;entryDy=0;" parent="1" source="q8TvVPf23e_hyGu6hidc-36" target="q8TvVPf23e_hyGu6hidc-28" edge="1">
          <mxGeometry width="50" height="50" relative="1" as="geometry">
            <mxPoint x="496.06" y="445" as="sourcePoint" />
            <mxPoint x="546.06" y="395" as="targetPoint" />
          </mxGeometry>
        </mxCell>
        <mxCell id="q8TvVPf23e_hyGu6hidc-38" value="Contain" style="rhombus;whiteSpace=wrap;html=1;" parent="1" vertex="1">
          <mxGeometry x="743" y="335" width="80" height="80" as="geometry" />
        </mxCell>
        <mxCell id="q8TvVPf23e_hyGu6hidc-39" value="1" style="endArrow=none;html=1;rounded=0;entryX=0;entryY=0.5;entryDx=0;entryDy=0;exitX=1;exitY=0.5;exitDx=0;exitDy=0;" parent="1" source="q8TvVPf23e_hyGu6hidc-28" target="q8TvVPf23e_hyGu6hidc-38" edge="1">
          <mxGeometry width="50" height="50" relative="1" as="geometry">
            <mxPoint x="584" y="379" as="sourcePoint" />
            <mxPoint x="758" y="377" as="targetPoint" />
          </mxGeometry>
        </mxCell>
        <mxCell id="q8TvVPf23e_hyGu6hidc-40" value="1" style="endArrow=none;html=1;rounded=0;exitX=1;exitY=0.5;exitDx=0;exitDy=0;" parent="1" source="q8TvVPf23e_hyGu6hidc-38" edge="1">
          <mxGeometry width="50" height="50" relative="1" as="geometry">
            <mxPoint x="909" y="334.55" as="sourcePoint" />
            <mxPoint x="959" y="284.55" as="targetPoint" />
          </mxGeometry>
        </mxCell>
        <mxCell id="3s1TShamk8GTOm4zsZ95-8" value="Quantity" style="ellipse;whiteSpace=wrap;html=1;" parent="1" vertex="1">
          <mxGeometry x="541.06" y="440" width="120" height="80" as="geometry" />
        </mxCell>
        <mxCell id="3s1TShamk8GTOm4zsZ95-9" value="" style="endArrow=none;html=1;rounded=0;exitX=0.5;exitY=0;exitDx=0;exitDy=0;entryX=0.75;entryY=1;entryDx=0;entryDy=0;" parent="1" source="3s1TShamk8GTOm4zsZ95-8" target="q8TvVPf23e_hyGu6hidc-28" edge="1">
          <mxGeometry width="50" height="50" relative="1" as="geometry">
            <mxPoint x="522.06" y="445" as="sourcePoint" />
            <mxPoint x="572.06" y="395" as="targetPoint" />
          </mxGeometry>
        </mxCell>
        <mxCell id="MKaay7IfGedZ16hl2SN3-2" value="" style="endArrow=none;html=1;rounded=0;exitX=0.5;exitY=0;exitDx=0;exitDy=0;entryX=0.5;entryY=1;entryDx=0;entryDy=0;" parent="1" source="q8TvVPf23e_hyGu6hidc-6" target="q8TvVPf23e_hyGu6hidc-11" edge="1">
          <mxGeometry width="50" height="50" relative="1" as="geometry">
            <mxPoint x="576" y="20" as="sourcePoint" />
            <mxPoint x="532" y="35" as="targetPoint" />
          </mxGeometry>
        </mxCell>
        <mxCell id="5Iph2HmhyzpjuYk20Se7-1" value="" style="shape=link;html=1;rounded=0;exitX=0.5;exitY=0;exitDx=0;exitDy=0;entryX=0.5;entryY=1;entryDx=0;entryDy=0;" parent="1" source="jFtiMo8EwNsYXTJmnN6S-13" target="jFtiMo8EwNsYXTJmnN6S-6" edge="1">
          <mxGeometry relative="1" as="geometry">
            <mxPoint x="74" y="233" as="sourcePoint" />
            <mxPoint x="-83" y="-89" as="targetPoint" />
          </mxGeometry>
        </mxCell>
        <mxCell id="5Iph2HmhyzpjuYk20Se7-4" value="" style="endArrow=none;html=1;rounded=0;exitX=0.5;exitY=0;exitDx=0;exitDy=0;entryX=0;entryY=0.5;entryDx=0;entryDy=0;" parent="1" source="jFtiMo8EwNsYXTJmnN6S-16" target="jFtiMo8EwNsYXTJmnN6S-13" edge="1">
          <mxGeometry width="50" height="50" relative="1" as="geometry">
            <mxPoint x="-380" y="52" as="sourcePoint" />
            <mxPoint x="34" y="-163" as="targetPoint" />
          </mxGeometry>
        </mxCell>
        <mxCell id="jFtiMo8EwNsYXTJmnN6S-38" value="" style="shape=requiredInterface;html=1;verticalLabelPosition=bottom;sketch=0;rotation=135;" parent="1" vertex="1">
          <mxGeometry x="-19" y="-93.00000000000003" width="20" height="20" as="geometry" />
        </mxCell>
        <mxCell id="5Iph2HmhyzpjuYk20Se7-10" value="Number_of_books" style="ellipse;whiteSpace=wrap;html=1;" parent="1" vertex="1">
          <mxGeometry x="-57" y="147" width="120" height="80" as="geometry" />
        </mxCell>
        <mxCell id="5Iph2HmhyzpjuYk20Se7-11" value="" style="endArrow=none;html=1;rounded=0;exitX=0.75;exitY=1;exitDx=0;exitDy=0;entryX=0.5;entryY=0;entryDx=0;entryDy=0;" parent="1" source="jFtiMo8EwNsYXTJmnN6S-16" target="5Iph2HmhyzpjuYk20Se7-10" edge="1">
          <mxGeometry width="50" height="50" relative="1" as="geometry">
            <mxPoint x="-2" y="306" as="sourcePoint" />
            <mxPoint x="58" y="159" as="targetPoint" />
          </mxGeometry>
        </mxCell>
        <mxCell id="5Iph2HmhyzpjuYk20Se7-12" value="Publish_date" style="ellipse;whiteSpace=wrap;html=1;" parent="1" vertex="1">
          <mxGeometry x="1214" y="362" width="120" height="80" as="geometry" />
        </mxCell>
        <mxCell id="5Iph2HmhyzpjuYk20Se7-13" value="" style="endArrow=none;html=1;rounded=0;fontSize=12;startSize=8;endSize=8;curved=1;entryX=1;entryY=1;entryDx=0;entryDy=0;" parent="1" source="5Iph2HmhyzpjuYk20Se7-12" target="o6I07O1_OOtZ4YXk67AV-3" edge="1">
          <mxGeometry width="50" height="50" relative="1" as="geometry">
            <mxPoint x="773" y="409" as="sourcePoint" />
            <mxPoint x="1055" y="386" as="targetPoint" />
          </mxGeometry>
        </mxCell>
        <mxCell id="5Iph2HmhyzpjuYk20Se7-14" value="N" style="shape=link;html=1;rounded=0;exitX=0.5;exitY=0;exitDx=0;exitDy=0;entryX=0.5;entryY=1;entryDx=0;entryDy=0;" parent="1" source="q8TvVPf23e_hyGu6hidc-28" target="q8TvVPf23e_hyGu6hidc-33" edge="1">
          <mxGeometry relative="1" as="geometry">
            <mxPoint x="57" y="-166" as="sourcePoint" />
            <mxPoint x="59" y="-253" as="targetPoint" />
          </mxGeometry>
        </mxCell>
        <mxCell id="5Iph2HmhyzpjuYk20Se7-16" value="Money_spent" style="ellipse;whiteSpace=wrap;html=1;" parent="1" vertex="1">
          <mxGeometry x="130" y="217" width="120" height="80" as="geometry" />
        </mxCell>
        <mxCell id="5Iph2HmhyzpjuYk20Se7-17" value="" style="endArrow=none;html=1;rounded=0;exitX=0.5;exitY=1;exitDx=0;exitDy=0;entryX=0.5;entryY=0;entryDx=0;entryDy=0;" parent="1" source="jFtiMo8EwNsYXTJmnN6S-14" target="5Iph2HmhyzpjuYk20Se7-16" edge="1">
          <mxGeometry width="50" height="50" relative="1" as="geometry">
            <mxPoint x="197" y="77" as="sourcePoint" />
            <mxPoint x="260" y="11" as="targetPoint" />
          </mxGeometry>
        </mxCell>
        <mxCell id="5Iph2HmhyzpjuYk20Se7-18" value="Total_money" style="ellipse;whiteSpace=wrap;html=1;" parent="1" vertex="1">
          <mxGeometry x="671" y="82" width="120" height="80" as="geometry" />
        </mxCell>
        <mxCell id="5Iph2HmhyzpjuYk20Se7-19" value="" style="endArrow=none;html=1;rounded=0;exitX=1;exitY=1;exitDx=0;exitDy=0;entryX=0;entryY=0.5;entryDx=0;entryDy=0;" parent="1" source="q8TvVPf23e_hyGu6hidc-6" target="5Iph2HmhyzpjuYk20Se7-18" edge="1">
          <mxGeometry width="50" height="50" relative="1" as="geometry">
            <mxPoint x="602" y="92" as="sourcePoint" />
            <mxPoint x="721" y="85" as="targetPoint" />
          </mxGeometry>
        </mxCell>
        <mxCell id="zx2yQ77F0J7ocwCOWvDu-34" value="&lt;u&gt;ID&lt;/u&gt;" style="ellipse;whiteSpace=wrap;html=1;" parent="1" vertex="1">
          <mxGeometry x="223" y="-346" width="120" height="80" as="geometry" />
        </mxCell>
        <mxCell id="zx2yQ77F0J7ocwCOWvDu-36" value="" style="endArrow=none;html=1;rounded=0;exitX=1;exitY=0.5;exitDx=0;exitDy=0;" parent="1" source="jFtiMo8EwNsYXTJmnN6S-6" target="zx2yQ77F0J7ocwCOWvDu-34" edge="1">
          <mxGeometry width="50" height="50" relative="1" as="geometry">
            <mxPoint x="7" y="-313" as="sourcePoint" />
            <mxPoint x="-39" y="-381" as="targetPoint" />
          </mxGeometry>
        </mxCell>
        <mxCell id="rsX4YcIpPeKFyfZl2VqN-1" value="Price" style="ellipse;whiteSpace=wrap;html=1;" parent="1" vertex="1">
          <mxGeometry x="1182" y="480" width="120" height="80" as="geometry" />
        </mxCell>
        <mxCell id="rsX4YcIpPeKFyfZl2VqN-3" value="" style="endArrow=none;html=1;rounded=0;fontSize=12;startSize=8;endSize=8;curved=1;entryX=0.75;entryY=1;entryDx=0;entryDy=0;" parent="1" source="rsX4YcIpPeKFyfZl2VqN-1" target="o6I07O1_OOtZ4YXk67AV-3" edge="1">
          <mxGeometry width="50" height="50" relative="1" as="geometry">
            <mxPoint x="1185" y="427" as="sourcePoint" />
            <mxPoint x="1054" y="349" as="targetPoint" />
          </mxGeometry>
        </mxCell>
        <mxCell id="TbhTJXSzmJJHlAf0EsSx-1" value="Conditions" style="ellipse;whiteSpace=wrap;html=1;" vertex="1" parent="1">
          <mxGeometry x="1135" y="566" width="120" height="80" as="geometry" />
        </mxCell>
        <mxCell id="TbhTJXSzmJJHlAf0EsSx-2" value="" style="endArrow=none;html=1;rounded=0;fontSize=12;startSize=8;endSize=8;curved=1;entryX=0.5;entryY=1;entryDx=0;entryDy=0;exitX=0;exitY=0;exitDx=0;exitDy=0;" edge="1" parent="1" source="TbhTJXSzmJJHlAf0EsSx-1" target="o6I07O1_OOtZ4YXk67AV-3">
          <mxGeometry width="50" height="50" relative="1" as="geometry">
            <mxPoint x="1220" y="496" as="sourcePoint" />
            <mxPoint x="1027" y="294" as="targetPoint" />
          </mxGeometry>
        </mxCell>
      </root>
    </mxGraphModel>
  </diagram>
  <diagram id="qqTnfwvuupk0LPFFzMJ1" name="Page-2">
    <mxGraphModel dx="2736" dy="949" grid="1" gridSize="10" guides="1" tooltips="1" connect="1" arrows="1" fold="1" page="1" pageScale="1" pageWidth="827" pageHeight="1169" math="0" shadow="0">
      <root>
        <mxCell id="0" />
        <mxCell id="1" parent="0" />
        <mxCell id="oSIoTXiGH7-U2VM_6k2F-1" value="&lt;u&gt;ID&lt;/u&gt;" style="rounded=0;whiteSpace=wrap;html=1;" parent="1" vertex="1">
          <mxGeometry x="-386.06" y="830" width="120" height="60" as="geometry" />
        </mxCell>
        <mxCell id="oSIoTXiGH7-U2VM_6k2F-2" value="Email" style="rounded=0;whiteSpace=wrap;html=1;" parent="1" vertex="1">
          <mxGeometry x="-266.06" y="830" width="120" height="60" as="geometry" />
        </mxCell>
        <mxCell id="oSIoTXiGH7-U2VM_6k2F-3" value="First_name" style="rounded=0;whiteSpace=wrap;html=1;" parent="1" vertex="1">
          <mxGeometry x="-26.06" y="830" width="120" height="60" as="geometry" />
        </mxCell>
        <mxCell id="oSIoTXiGH7-U2VM_6k2F-4" value="Middle_name" style="rounded=0;whiteSpace=wrap;html=1;" parent="1" vertex="1">
          <mxGeometry x="93.94" y="830" width="120" height="60" as="geometry" />
        </mxCell>
        <mxCell id="oSIoTXiGH7-U2VM_6k2F-5" value="Last_name" style="rounded=0;whiteSpace=wrap;html=1;" parent="1" vertex="1">
          <mxGeometry x="213.94" y="830" width="120" height="60" as="geometry" />
        </mxCell>
        <mxCell id="oSIoTXiGH7-U2VM_6k2F-6" value="Person" style="text;html=1;align=center;verticalAlign=middle;resizable=0;points=[];autosize=1;strokeColor=none;fillColor=none;" parent="1" vertex="1">
          <mxGeometry x="-386.06" y="796" width="56" height="26" as="geometry" />
        </mxCell>
        <mxCell id="oSIoTXiGH7-U2VM_6k2F-7" style="edgeStyle=orthogonalEdgeStyle;rounded=0;orthogonalLoop=1;jettySize=auto;html=1;entryX=0;entryY=0.5;entryDx=0;entryDy=0;exitX=0;exitY=0.5;exitDx=0;exitDy=0;" parent="1" source="oSIoTXiGH7-U2VM_6k2F-8" target="oSIoTXiGH7-U2VM_6k2F-30" edge="1">
          <mxGeometry relative="1" as="geometry" />
        </mxCell>
        <mxCell id="oSIoTXiGH7-U2VM_6k2F-8" value="&lt;u&gt;Order_ID&lt;/u&gt;" style="rounded=0;whiteSpace=wrap;html=1;" parent="1" vertex="1">
          <mxGeometry x="-382" y="1571" width="120" height="60" as="geometry" />
        </mxCell>
        <mxCell id="oSIoTXiGH7-U2VM_6k2F-9" value="Quantity" style="rounded=0;whiteSpace=wrap;html=1;" parent="1" vertex="1">
          <mxGeometry x="-262" y="1571" width="120" height="60" as="geometry" />
        </mxCell>
        <mxCell id="oSIoTXiGH7-U2VM_6k2F-10" value="Discount" style="rounded=0;whiteSpace=wrap;html=1;" parent="1" vertex="1">
          <mxGeometry x="-142" y="1571" width="120" height="60" as="geometry" />
        </mxCell>
        <mxCell id="oSIoTXiGH7-U2VM_6k2F-11" value="Order_item" style="text;html=1;align=center;verticalAlign=middle;resizable=0;points=[];autosize=1;strokeColor=none;fillColor=none;" parent="1" vertex="1">
          <mxGeometry x="-377" y="1536" width="78" height="26" as="geometry" />
        </mxCell>
        <mxCell id="oSIoTXiGH7-U2VM_6k2F-12" value="&lt;u&gt;Publisher_ID&lt;/u&gt;" style="rounded=0;whiteSpace=wrap;html=1;" parent="1" vertex="1">
          <mxGeometry x="-382" y="1344" width="120" height="60" as="geometry" />
        </mxCell>
        <mxCell id="oSIoTXiGH7-U2VM_6k2F-13" value="&lt;span style=&quot;forced-color-adjust: none; color: rgb(0, 0, 0); font-family: Helvetica; font-size: 12px; font-style: normal; font-variant-ligatures: normal; font-variant-caps: normal; font-weight: 400; letter-spacing: normal; orphans: 2; text-align: center; text-indent: 0px; text-transform: none; widows: 2; word-spacing: 0px; -webkit-text-stroke-width: 0px; white-space: normal; background-color: rgb(255, 255, 255);&quot;&gt;Publisher_name&lt;/span&gt;" style="rounded=0;whiteSpace=wrap;html=1;" parent="1" vertex="1">
          <mxGeometry x="-262" y="1344" width="120" height="60" as="geometry" />
        </mxCell>
        <mxCell id="oSIoTXiGH7-U2VM_6k2F-14" value="Address" style="rounded=0;whiteSpace=wrap;html=1;" parent="1" vertex="1">
          <mxGeometry x="-142" y="1344" width="120" height="60" as="geometry" />
        </mxCell>
        <mxCell id="oSIoTXiGH7-U2VM_6k2F-15" value="&lt;u&gt;Book_ID&lt;/u&gt;" style="rounded=0;whiteSpace=wrap;html=1;" parent="1" vertex="1">
          <mxGeometry x="-382" y="1453" width="120" height="60" as="geometry" />
        </mxCell>
        <mxCell id="oSIoTXiGH7-U2VM_6k2F-16" value="Author_name" style="rounded=0;whiteSpace=wrap;html=1;" parent="1" vertex="1">
          <mxGeometry x="-262" y="1453" width="120" height="60" as="geometry" />
        </mxCell>
        <mxCell id="oSIoTXiGH7-U2VM_6k2F-17" value="Genre" style="rounded=0;whiteSpace=wrap;html=1;" parent="1" vertex="1">
          <mxGeometry x="-142" y="1453" width="120" height="60" as="geometry" />
        </mxCell>
        <mxCell id="oSIoTXiGH7-U2VM_6k2F-18" value="Title" style="rounded=0;whiteSpace=wrap;html=1;" parent="1" vertex="1">
          <mxGeometry x="98" y="1453" width="120" height="60" as="geometry" />
        </mxCell>
        <mxCell id="oSIoTXiGH7-U2VM_6k2F-19" value="Publish_date" style="rounded=0;whiteSpace=wrap;html=1;" parent="1" vertex="1">
          <mxGeometry x="218" y="1453" width="120" height="60" as="geometry" />
        </mxCell>
        <mxCell id="oSIoTXiGH7-U2VM_6k2F-20" value="Book" style="text;html=1;align=center;verticalAlign=middle;resizable=0;points=[];autosize=1;strokeColor=none;fillColor=none;" parent="1" vertex="1">
          <mxGeometry x="-376" y="1419" width="45" height="26" as="geometry" />
        </mxCell>
        <mxCell id="oSIoTXiGH7-U2VM_6k2F-21" style="edgeStyle=orthogonalEdgeStyle;rounded=0;orthogonalLoop=1;jettySize=auto;html=1;entryX=0;entryY=0.75;entryDx=0;entryDy=0;exitX=0;exitY=0.5;exitDx=0;exitDy=0;" parent="1" source="oSIoTXiGH7-U2VM_6k2F-22" target="oSIoTXiGH7-U2VM_6k2F-1" edge="1">
          <mxGeometry relative="1" as="geometry">
            <Array as="points">
              <mxPoint x="-501.06" y="998" />
              <mxPoint x="-501.06" y="875" />
            </Array>
          </mxGeometry>
        </mxCell>
        <mxCell id="oSIoTXiGH7-U2VM_6k2F-22" value="&lt;u&gt;ID&lt;/u&gt;" style="rounded=0;whiteSpace=wrap;html=1;" parent="1" vertex="1">
          <mxGeometry x="-386.06" y="968" width="120" height="60" as="geometry" />
        </mxCell>
        <mxCell id="oSIoTXiGH7-U2VM_6k2F-23" value="&lt;span style=&quot;color: rgb(0, 0, 0); font-family: Helvetica; font-size: 12px; font-style: normal; font-variant-ligatures: normal; font-variant-caps: normal; font-weight: 400; letter-spacing: normal; orphans: 2; text-align: center; text-indent: 0px; text-transform: none; widows: 2; word-spacing: 0px; -webkit-text-stroke-width: 0px; white-space: normal; background-color: rgb(255, 255, 255); text-decoration-thickness: initial; text-decoration-style: initial; text-decoration-color: initial; display: inline !important; float: none;&quot;&gt;Number_of_books&lt;/span&gt;" style="rounded=0;whiteSpace=wrap;html=1;" parent="1" vertex="1">
          <mxGeometry x="-266.06" y="968" width="120" height="60" as="geometry" />
        </mxCell>
        <mxCell id="oSIoTXiGH7-U2VM_6k2F-24" value="Author" style="text;html=1;align=center;verticalAlign=middle;resizable=0;points=[];autosize=1;strokeColor=none;fillColor=none;" parent="1" vertex="1">
          <mxGeometry x="-384.06" y="934" width="53" height="26" as="geometry" />
        </mxCell>
        <mxCell id="oSIoTXiGH7-U2VM_6k2F-25" style="edgeStyle=orthogonalEdgeStyle;rounded=0;orthogonalLoop=1;jettySize=auto;html=1;exitX=0;exitY=0.5;exitDx=0;exitDy=0;entryX=0;entryY=0.5;entryDx=0;entryDy=0;" parent="1" source="oSIoTXiGH7-U2VM_6k2F-26" target="oSIoTXiGH7-U2VM_6k2F-1" edge="1">
          <mxGeometry relative="1" as="geometry">
            <Array as="points">
              <mxPoint x="-516.06" y="1130" />
              <mxPoint x="-516.06" y="860" />
            </Array>
          </mxGeometry>
        </mxCell>
        <mxCell id="oSIoTXiGH7-U2VM_6k2F-26" value="&lt;u&gt;ID&lt;/u&gt;" style="rounded=0;whiteSpace=wrap;html=1;" parent="1" vertex="1">
          <mxGeometry x="-386.06" y="1100" width="120" height="60" as="geometry" />
        </mxCell>
        <mxCell id="oSIoTXiGH7-U2VM_6k2F-27" value="Money_spent" style="rounded=0;whiteSpace=wrap;html=1;" parent="1" vertex="1">
          <mxGeometry x="-266.06" y="1100" width="120" height="60" as="geometry" />
        </mxCell>
        <mxCell id="oSIoTXiGH7-U2VM_6k2F-28" value="Customer" style="text;html=1;align=center;verticalAlign=middle;resizable=0;points=[];autosize=1;strokeColor=none;fillColor=none;" parent="1" vertex="1">
          <mxGeometry x="-388.56" y="1065" width="70" height="26" as="geometry" />
        </mxCell>
        <mxCell id="oSIoTXiGH7-U2VM_6k2F-29" value="Phone_number" style="rounded=0;whiteSpace=wrap;html=1;" parent="1" vertex="1">
          <mxGeometry x="-146.06" y="830" width="120" height="60" as="geometry" />
        </mxCell>
        <mxCell id="oSIoTXiGH7-U2VM_6k2F-30" value="&lt;u&gt;Order_ID&lt;/u&gt;" style="rounded=0;whiteSpace=wrap;html=1;" parent="1" vertex="1">
          <mxGeometry x="-382" y="1214" width="120" height="60" as="geometry" />
        </mxCell>
        <mxCell id="oSIoTXiGH7-U2VM_6k2F-31" value="Total_money" style="rounded=0;whiteSpace=wrap;html=1;" parent="1" vertex="1">
          <mxGeometry x="-262" y="1214" width="120" height="60" as="geometry" />
        </mxCell>
        <mxCell id="oSIoTXiGH7-U2VM_6k2F-32" value="Order_date" style="rounded=0;whiteSpace=wrap;html=1;" parent="1" vertex="1">
          <mxGeometry x="-142" y="1214" width="120" height="60" as="geometry" />
        </mxCell>
        <mxCell id="oSIoTXiGH7-U2VM_6k2F-33" value="Orders" style="text;html=1;align=center;verticalAlign=middle;resizable=0;points=[];autosize=1;strokeColor=none;fillColor=none;" parent="1" vertex="1">
          <mxGeometry x="-383" y="1178" width="60" height="30" as="geometry" />
        </mxCell>
        <mxCell id="oSIoTXiGH7-U2VM_6k2F-34" style="edgeStyle=orthogonalEdgeStyle;rounded=0;orthogonalLoop=1;jettySize=auto;html=1;exitX=0.5;exitY=1;exitDx=0;exitDy=0;entryX=0;entryY=0.5;entryDx=0;entryDy=0;" parent="1" source="oSIoTXiGH7-U2VM_6k2F-35" target="oSIoTXiGH7-U2VM_6k2F-15" edge="1">
          <mxGeometry relative="1" as="geometry">
            <Array as="points">
              <mxPoint x="38" y="1651" />
              <mxPoint x="-450" y="1651" />
              <mxPoint x="-450" y="1483" />
            </Array>
          </mxGeometry>
        </mxCell>
        <mxCell id="oSIoTXiGH7-U2VM_6k2F-35" value="Book_ID" style="rounded=0;whiteSpace=wrap;html=1;" parent="1" vertex="1">
          <mxGeometry x="-22" y="1571" width="120" height="60" as="geometry" />
        </mxCell>
        <mxCell id="oSIoTXiGH7-U2VM_6k2F-36" value="Publisher" style="text;html=1;align=center;verticalAlign=middle;resizable=0;points=[];autosize=1;strokeColor=none;fillColor=none;" parent="1" vertex="1">
          <mxGeometry x="-374" y="1311" width="68" height="26" as="geometry" />
        </mxCell>
        <mxCell id="oSIoTXiGH7-U2VM_6k2F-37" style="edgeStyle=orthogonalEdgeStyle;rounded=0;orthogonalLoop=1;jettySize=auto;html=1;exitX=1;exitY=0.5;exitDx=0;exitDy=0;entryX=0;entryY=0.75;entryDx=0;entryDy=0;" parent="1" source="oSIoTXiGH7-U2VM_6k2F-38" target="oSIoTXiGH7-U2VM_6k2F-26" edge="1">
          <mxGeometry relative="1" as="geometry">
            <Array as="points">
              <mxPoint x="118" y="1244" />
              <mxPoint x="118" y="1173" />
              <mxPoint x="-406" y="1173" />
              <mxPoint x="-406" y="1145" />
            </Array>
          </mxGeometry>
        </mxCell>
        <mxCell id="oSIoTXiGH7-U2VM_6k2F-38" value="Customer_ID" style="rounded=0;whiteSpace=wrap;html=1;" parent="1" vertex="1">
          <mxGeometry x="-22" y="1214" width="120" height="60" as="geometry" />
        </mxCell>
        <mxCell id="oSIoTXiGH7-U2VM_6k2F-39" style="edgeStyle=orthogonalEdgeStyle;rounded=0;orthogonalLoop=1;jettySize=auto;html=1;exitX=0.5;exitY=1;exitDx=0;exitDy=0;entryX=0;entryY=0.5;entryDx=0;entryDy=0;" parent="1" source="oSIoTXiGH7-U2VM_6k2F-40" target="oSIoTXiGH7-U2VM_6k2F-12" edge="1">
          <mxGeometry relative="1" as="geometry">
            <Array as="points">
              <mxPoint x="518" y="1660" />
              <mxPoint x="-479" y="1660" />
              <mxPoint x="-479" y="1374" />
            </Array>
          </mxGeometry>
        </mxCell>
        <mxCell id="oSIoTXiGH7-U2VM_6k2F-40" value="Publisher_ID" style="rounded=0;whiteSpace=wrap;html=1;" parent="1" vertex="1">
          <mxGeometry x="458" y="1453" width="120" height="60" as="geometry" />
        </mxCell>
        <mxCell id="oSIoTXiGH7-U2VM_6k2F-41" style="edgeStyle=orthogonalEdgeStyle;rounded=0;orthogonalLoop=1;jettySize=auto;html=1;exitX=0.5;exitY=1;exitDx=0;exitDy=0;entryX=0;entryY=0.75;entryDx=0;entryDy=0;" parent="1" source="oSIoTXiGH7-U2VM_6k2F-42" target="oSIoTXiGH7-U2VM_6k2F-22" edge="1">
          <mxGeometry relative="1" as="geometry">
            <Array as="points">
              <mxPoint x="640" y="1513" />
              <mxPoint x="640" y="1670" />
              <mxPoint x="-530" y="1670" />
              <mxPoint x="-530" y="1013" />
            </Array>
          </mxGeometry>
        </mxCell>
        <mxCell id="oSIoTXiGH7-U2VM_6k2F-42" value="Author_ID" style="rounded=0;whiteSpace=wrap;html=1;" parent="1" vertex="1">
          <mxGeometry x="578" y="1453" width="120" height="60" as="geometry" />
        </mxCell>
        <mxCell id="fk7dd-EmQJKjD4W68I2v-1" value="Price" style="rounded=0;whiteSpace=wrap;html=1;" parent="1" vertex="1">
          <mxGeometry x="-22" y="1453" width="120" height="60" as="geometry" />
        </mxCell>
        <mxCell id="CWnAz8WySOsgQGJWwj7E-1" value="&lt;u&gt;ID&lt;/u&gt;" style="rounded=0;whiteSpace=wrap;html=1;" parent="1" vertex="1">
          <mxGeometry x="-420" y="464" width="120" height="60" as="geometry" />
        </mxCell>
        <mxCell id="CWnAz8WySOsgQGJWwj7E-2" value="Email" style="rounded=0;whiteSpace=wrap;html=1;" parent="1" vertex="1">
          <mxGeometry x="-300" y="464" width="120" height="60" as="geometry" />
        </mxCell>
        <mxCell id="CWnAz8WySOsgQGJWwj7E-3" value="First_name" style="rounded=0;whiteSpace=wrap;html=1;" parent="1" vertex="1">
          <mxGeometry x="-60" y="464" width="120" height="60" as="geometry" />
        </mxCell>
        <mxCell id="CWnAz8WySOsgQGJWwj7E-4" value="Middle_name" style="rounded=0;whiteSpace=wrap;html=1;" parent="1" vertex="1">
          <mxGeometry x="60" y="464" width="120" height="60" as="geometry" />
        </mxCell>
        <mxCell id="CWnAz8WySOsgQGJWwj7E-5" value="Last_name" style="rounded=0;whiteSpace=wrap;html=1;" parent="1" vertex="1">
          <mxGeometry x="180" y="464" width="120" height="60" as="geometry" />
        </mxCell>
        <mxCell id="CWnAz8WySOsgQGJWwj7E-6" value="Person" style="text;html=1;align=center;verticalAlign=middle;resizable=0;points=[];autosize=1;strokeColor=none;fillColor=none;" parent="1" vertex="1">
          <mxGeometry x="-420" y="430" width="56" height="26" as="geometry" />
        </mxCell>
        <mxCell id="CWnAz8WySOsgQGJWwj7E-7" value="Phone_number" style="rounded=0;whiteSpace=wrap;html=1;" parent="1" vertex="1">
          <mxGeometry x="-180" y="464" width="120" height="60" as="geometry" />
        </mxCell>
        <mxCell id="fIiAdpmUvsv1Ha9zJWf2-1" value="Conditions" style="rounded=0;whiteSpace=wrap;html=1;" vertex="1" parent="1">
          <mxGeometry x="338" y="1453" width="120" height="60" as="geometry" />
        </mxCell>
      </root>
    </mxGraphModel>
  </diagram>
</mxfile>
